HIERARCHY
ROOT Hips
{
	OFFSET 49.685200 -5.256404 86.737900
	CHANNELS 6 Xposition Yposition Zposition Xrotation Yrotation Zrotation
	JOINT spine
	{
		OFFSET 0.000000 -0.393701 6.846367
		CHANNELS 3 Xrotation Yrotation Zrotation
		JOINT spine1
		{
			OFFSET 0.000000 -0.000001 9.496208
			CHANNELS 3 Xrotation Yrotation Zrotation
			JOINT spine2
			{
				OFFSET 0.000000 -0.000001 9.099091
				CHANNELS 3 Xrotation Yrotation Zrotation
				JOINT Neck
				{
					OFFSET 0.000000 -1.113784 23.361206
					CHANNELS 3 Xrotation Yrotation Zrotation
					JOINT Head
					{
						OFFSET 0.000000 -0.000001 7.058014
						CHANNELS 3 Xrotation Yrotation Zrotation
						End Site
						{
							OFFSET 0.000000 5.634188 17.084396
						}
					}
				}
				JOINT RightShoulder
				{
					OFFSET -3.831360 0.533489 9.826309
					CHANNELS 3 Xrotation Yrotation Zrotation
					JOINT RightArm
					{
						OFFSET 0.000000 -0.000002 12.888107
						CHANNELS 3 Xrotation Yrotation Zrotation
						JOINT RightArmRoll
						{
							OFFSET 0.000000 -0.000001 6.506165
							CHANNELS 3 Xrotation Yrotation Zrotation
							JOINT RightForeArm
							{
								OFFSET 0.000000 -0.000003 18.950104
								CHANNELS 3 Xrotation Yrotation Zrotation
								JOINT RightForeArmRoll
								{
									OFFSET 0.000000 -0.000001 7.300919
									CHANNELS 3 Xrotation Yrotation Zrotation
									JOINT RightHand
									{
										OFFSET 0.000000 -0.000002 14.651398
										CHANNELS 3 Xrotation Yrotation Zrotation
										End Site
										{
											OFFSET 0.000000 0.000000 0.100006
										}
									}
								}
							}
						}
					}
				}
				JOINT LeftShoulder
				{
					OFFSET 3.831360 0.533489 9.826309
					CHANNELS 3 Xrotation Yrotation Zrotation
					JOINT LeftArm
					{
						OFFSET 0.000000 -0.000002 12.888107
						CHANNELS 3 Xrotation Yrotation Zrotation
						JOINT LeftArmRoll
						{
							OFFSET 0.000000 -0.000001 6.506165
							CHANNELS 3 Xrotation Yrotation Zrotation
							JOINT LeftForeArm
							{
								OFFSET 0.000000 -0.000003 18.950104
								CHANNELS 3 Xrotation Yrotation Zrotation
								JOINT LeftForeArmRoll
								{
									OFFSET 0.000000 -0.000001 7.300919
									CHANNELS 3 Xrotation Yrotation Zrotation
									JOINT LeftHand
									{
										OFFSET 0.000000 -0.000002 14.651398
										CHANNELS 3 Xrotation Yrotation Zrotation
										End Site
										{
											OFFSET 0.000000 0.000000 0.100006
										}
									}
								}
							}
						}
					}
				}
			}
		}
	}
	JOINT RightUpLeg
	{
		OFFSET -6.068371 0.933477 -1.112778
		CHANNELS 3 Xrotation Yrotation Zrotation
		JOINT RightUpLegRoll
		{
			OFFSET 0.000000 -0.000003 17.179596
			CHANNELS 3 Xrotation Yrotation Zrotation
			JOINT RightLeg
			{
				OFFSET 0.000000 0.000003 -21.274300
				CHANNELS 3 Xrotation Yrotation Zrotation
				JOINT RightLegRoll
				{
					OFFSET 0.000000 -0.000003 21.343903
					CHANNELS 3 Xrotation Yrotation Zrotation
					JOINT RightFoot
					{
						OFFSET 0.000000 -0.000003 17.765198
						CHANNELS 3 Xrotation Yrotation Zrotation
						JOINT RightToeBase
						{
							OFFSET 0.000000 -0.000002 14.850807
							CHANNELS 3 Xrotation Yrotation Zrotation
							End Site
							{
								OFFSET 0.006294 0.829004 7.192123
							}
						}
					}
				}
			}
		}
	}
	JOINT LeftUpLeg
	{
		OFFSET 6.068371 0.933477 -1.112778
		CHANNELS 3 Xrotation Yrotation Zrotation
		JOINT LeftUpLegRoll
		{
			OFFSET 0.000000 -0.000003 17.179703
			CHANNELS 3 Xrotation Yrotation Zrotation
			JOINT LeftLeg
			{
				OFFSET 0.000000 -0.000003 21.274200
				CHANNELS 3 Xrotation Yrotation Zrotation
				JOINT LeftLegRoll
				{
					OFFSET 0.000000 -0.000004 21.541199
					CHANNELS 3 Xrotation Yrotation Zrotation
					JOINT LeftFoot
					{
						OFFSET 0.000000 -0.000003 17.567902
						CHANNELS 3 Xrotation Yrotation Zrotation
						JOINT LeftToeBase
						{
							OFFSET 0.000000 -0.000002 14.850800
							CHANNELS 3 Xrotation Yrotation Zrotation
							End Site
							{
								OFFSET -0.028210 0.829004 7.192139
							}
						}
					}
				}
			}
		}
	}
}
MOTION
Frames: 9
Frame Time: 0.041667
46.245098 -3.418995 86.195595 1.879464 -2.402448 18.102110 -1.006464 -2.109444 0.979318 2.026381 -4.225696 1.920806 3.672917 -4.202361 1.971642 2.012483 13.175149 6.679229 14.702105 -3.596756 5.262548 -5.925971 -40.810875 -5.212631 135.442214 -7.177065 81.986982 -0.000054 -0.000013 -0.000011 54.460701 -12.667677 10.182450 -0.000014 0.000006 -2.999989 -4.999501 -7.998753 -0.000207 -15.720046 64.747625 18.662611 97.421249 38.606821 -75.344971 0.000000 -0.000002 0.000005 36.430494 28.030359 -11.428999 0.000009 0.000003 2.999992 -4.999980 8.000230 0.000340 -19.819146 -179.341465 -1.461110 -179.999991 0.000004 -1.377003 153.741384 -5.055791 -1.245380 0.000001 0.000001 0.878656 73.754514 8.809499 -3.883322 25.456959 -7.355617 0.000010 -18.845351 175.837852 -1.393849 -0.000004 -0.000004 -0.742302 -22.539503 4.388649 1.339797 -0.000004 -0.000002 -0.135929 71.475614 -5.891769 -4.714447 25.456964 7.355625 -0.000004 
46.251301 -3.411294 86.191292 1.881116 -2.398068 18.152739 -1.012972 -2.115100 0.980157 2.013525 -4.237124 1.924638 3.660076 -4.213746 1.975596 2.079972 13.093961 6.723520 14.682414 -3.513683 5.311256 -5.963402 -40.897185 -5.270812 135.306430 -7.405984 82.134138 -0.000054 -0.000012 -0.000012 54.497673 -12.541152 10.099167 -0.000014 0.000006 -2.999991 -4.999503 -7.998752 -0.000207 -15.718029 64.718624 18.659809 97.554649 38.438433 -75.762494 -0.000001 0.000001 0.000003 35.920067 28.175606 -11.333853 0.000008 0.000002 2.999986 -4.999980 8.000229 0.000337 -19.813580 -179.332969 -1.458077 -179.999991 0.000005 -1.376007 153.740701 -5.053061 -1.246123 0.000003 0.000002 0.878708 73.746734 8.806043 -3.871405 25.456960 -7.355614 0.000011 -18.861421 175.857181 -1.377894 -0.000003 -0.000003 -0.743216 -22.543453 4.383494 1.338763 -0.000004 -0.000002 -0.137800 71.474979 -5.895855 -4.703051 25.456962 7.355621 -0.000005 
46.267502 -3.397924 86.191795 1.882991 -2.393419 18.203062 -1.019619 -2.120695 0.981194 2.000408 -4.248438 1.928962 3.646962 -4.225006 1.980023 2.147801 13.011560 6.767437 14.662854 -3.430013 5.359570 -6.000833 -40.985667 -5.329267 135.173528 -7.637974 82.279000 -0.000055 -0.000013 -0.000012 54.533173 -12.415547 10.016250 -0.000014 0.000006 -2.999989 -4.999502 -7.998752 -0.000203 -15.713024 64.688633 18.653542 97.689505 38.264533 -76.190405 -0.000002 -0.000002 0.000003 35.397674 28.324456 -11.233898 0.000009 0.000003 2.999989 -4.999979 8.000230 0.000344 -19.808419 -179.324472 -1.455097 -179.999991 0.000004 -1.376005 153.739963 -5.051238 -1.246304 0.000003 0.000002 0.878787 73.739023 8.802724 -3.859879 25.456959 -7.355613 0.000010 -18.877994 175.876524 -1.362852 -0.000004 -0.000003 -0.744104 -22.548025 4.378877 1.337840 -0.000004 -0.000002 -0.139631 71.474487 -5.900073 -4.691466 25.456959 7.355625 -0.000005 
46.276600 -3.397925 86.192490 1.885029 -2.388598 18.253286 -1.026356 -2.126249 0.982364 1.987101 -4.259666 1.933620 3.633659 -4.236178 1.984806 2.215848 12.928347 6.811149 14.643415 -3.345927 5.407616 -6.038300 -41.075549 -5.387952 135.043563 -7.870932 82.424107 -0.000055 -0.000012 -0.000012 54.567648 -12.290650 9.933560 -0.000015 0.000006 -2.999988 -4.999502 -7.998751 -0.000208 -15.705819 64.657754 18.644726 97.824435 38.086747 -76.624996 -0.000002 0.000001 0.000003 34.866586 28.475977 -11.129868 0.000009 0.000001 2.999990 -4.999988 8.000231 0.000338 -19.803543 -179.316931 -1.451811 -179.999991 0.000004 -1.374993 153.739239 -5.049415 -1.245488 0.000002 0.000002 0.878882 73.731428 8.799374 -3.848361 25.456960 -7.355616 0.000010 -18.894784 175.894925 -1.348130 -0.000002 -0.000003 -0.744980 -22.552805 4.374640 1.336982 -0.000004 -0.000002 -0.141422 71.474132 -5.904349 -4.679584 25.456964 7.355623 -0.000003 
46.305500 -3.422495 86.202682 1.887144 -2.383659 18.303317 -1.033154 -2.131774 0.983605 1.973692 -4.270855 1.938481 3.620265 -4.247307 1.989767 2.283993 12.844721 6.854840 14.624012 -3.261635 5.455534 -6.075851 -41.166298 -5.446847 134.915593 -8.106215 82.567944 -0.000056 -0.000014 -0.000011 54.601669 -12.166175 9.850899 -0.000014 0.000006 -2.999988 -4.999503 -7.998752 -0.000206 -15.697383 64.626382 18.634493 97.958156 37.906795 -77.062852 -0.000004 -0.000001 0.000003 34.329996 28.629192 -11.022413 0.000008 0.000001 2.999990 -4.999979 8.000230 0.000340 -19.798784 -179.308435 -1.448882 -179.999991 0.000005 -1.374994 153.738460 -5.046679 -1.245230 0.000002 0.000001 0.878992 73.723853 8.796085 -3.836940 25.456960 -7.355614 0.000010 -18.911884 175.913339 -1.333778 -0.000004 -0.000004 -0.745848 -22.557893 4.370604 1.336162 -0.000004 -0.000002 -0.143202 71.473797 -5.908730 -4.667517 25.456964 7.355625 -0.000005 
46.311302 -3.408425 86.199692 1.889277 -2.378697 18.353239 -1.039964 -2.137299 0.984870 1.960254 -4.282022 1.943379 3.606830 -4.258430 1.994779 2.352120 12.761088 6.898706 14.604649 -3.177300 5.503478 -6.113510 -41.257239 -5.505916 134.789521 -8.341671 82.712928 -0.000056 -0.000011 -0.000013 54.635721 -12.041963 9.768169 -0.000014 0.000006 -2.999989 -4.999503 -7.998752 -0.000207 -15.688680 64.594943 18.623952 98.089276 37.726195 -77.500019 -0.000001 -0.000001 0.000003 33.791323 28.783069 -10.912358 0.000006 0.000001 2.999992 -4.999981 8.000228 0.000340 -19.794117 -179.300894 -1.445621 -179.999991 0.000005 -1.373996 153.737736 -5.044857 -1.245412 0.000002 0.000001 0.879100 73.716278 8.792789 -3.825618 25.456959 -7.355615 0.000010 -18.928910 175.930783 -1.319195 -0.000006 -0.000004 -0.746710 -22.562985 4.366635 1.335354 -0.000004 -0.000002 -0.144974 71.473470 -5.913110 -4.655452 25.456960 7.355625 -0.000004 
46.331799 -3.401405 86.182404 1.891364 -2.373776 18.403368 -1.046741 -2.142834 0.986095 1.946865 -4.293228 1.948177 3.593454 -4.269571 1.999685 2.420116 12.677747 6.942894 14.585317 -3.093123 5.551556 -6.151285 -41.347663 -5.565104 134.664911 -8.577261 82.859443 -0.000056 -0.000011 -0.000010 54.670545 -11.917687 9.685209 -0.000013 0.000006 -2.999989 -4.999503 -7.998753 -0.000203 -15.680578 64.563661 18.614086 98.216508 37.546738 -77.932602 -0.000001 0.000001 0.000003 33.253705 28.936837 -10.800571 0.000009 0.000003 2.999990 -4.999983 8.000230 0.000339 -19.789447 -179.293340 -1.442354 -179.999991 0.000004 -1.373998 153.736917 -5.043016 -1.245611 0.000002 0.000002 0.879205 73.708622 8.789531 -3.814187 25.456957 -7.355618 0.000010 -18.945908 175.949170 -1.304766 -0.000003 -0.000004 -0.747579 -22.567975 4.362549 1.334524 -0.000004 -0.000002 -0.146759 71.473135 -5.917488 -4.643388 25.456960 7.355621 -0.000005 
46.346203 -3.405483 86.188393 1.893330 -2.368987 18.453590 -1.053459 -2.148398 0.987223 1.933616 -4.304489 1.952725 3.580212 -4.280790 2.004348 2.487847 12.595296 6.987592 14.565928 -3.009281 5.599929 -6.189237 -41.436972 -5.624381 134.541258 -8.813656 83.006804 -0.000055 -0.000013 -0.000011 54.706506 -11.793115 9.601749 -0.000013 0.000006 -2.999987 -4.999502 -7.998751 -0.000204 -15.674079 64.533007 18.606081 98.338782 37.370011 -78.357303 -0.000001 -0.000001 0.000004 32.720530 29.089526 -10.687962 0.000009 0.000001 2.999990 -4.999982 8.000230 0.000339 -19.784486 -179.284857 -1.439400 -179.999991 0.000004 -1.373001 153.736193 -5.041195 -1.245794 0.000001 0.000002 0.879297 73.701020 8.786173 -3.802676 25.456957 -7.355613 0.000009 -18.962687 175.968513 -1.290213 -0.000004 -0.000004 -0.748458 -22.572752 4.358203 1.333645 -0.000004 -0.000002 -0.148565 71.472677 -5.921767 -4.631609 25.456967 7.355624 -0.000003 
46.359104 -3.407315 86.197899 1.895124 -2.364397 18.504014 -1.060069 -2.154011 0.988179 1.920567 -4.315854 1.956865 3.567176 -4.292099 2.008605 2.555213 12.514035 7.032956 14.546377 -2.925972 5.648708 -6.227378 -41.524541 -5.683728 134.418259 -9.049403 83.156979 -0.000054 -0.000015 -0.000009 54.744192 -11.668098 9.517731 -0.000014 0.000005 -2.999994 -4.999502 -7.998753 -0.000204 -15.670086 64.503330 18.600948 98.455927 37.197545 -78.771718 -0.000001 -0.000000 0.000002 32.195230 29.240030 -10.575464 0.000012 0.000004 2.999989 -4.999984 8.000231 0.000337 -19.779123 -179.276360 -1.436388 -179.999991 0.000005 -1.372999 153.735455 -5.039358 -1.245969 0.000002 0.000002 0.879363 73.693288 8.782765 -3.790962 25.456959 -7.355615 0.000009 -18.979093 175.986886 -1.274612 -0.000003 -0.000004 -0.749356 -22.577115 4.353426 1.332686 -0.000004 -0.000002 -0.150404 71.472185 -5.925952 -4.620021 25.456964 7.355624 -0.000005 
